<svg width="160" height="160" viewBox="0 0 160 160" fill="none" xmlns="http://www.w3.org/2000/svg">
<g clip-path="url(#clip0_17_1097)">
<path d="M160 0H0V160H160V0Z" fill="white"/>
<path d="M33.8926 34.8374C34.5492 34.4874 35.1687 34.3213 35.8623 34.4497C36.5567 34.5783 37.0774 34.9582 37.5674 35.5239C38.0428 36.0729 38.5284 36.8437 39.1367 37.8071C41.4946 41.5412 44.9163 47.3556 47.459 53.3335C48.7303 56.3225 49.7871 59.3657 50.3789 62.2183C50.9694 65.0648 51.105 67.7614 50.4951 70.0376C49.8241 72.5416 48.3021 75.0204 46.3076 77.3853C44.3102 79.7535 41.8183 82.0323 39.1729 84.1343C33.8823 88.3381 27.9383 91.8677 24.0107 94.0288C23.0152 94.5766 22.2196 95.0163 21.5391 95.2661C20.8372 95.5237 20.1979 95.6027 19.5273 95.3784C18.8583 95.1545 18.3971 94.7107 17.9932 94.0874C17.6018 93.4833 17.2336 92.6605 16.7725 91.6343C14.7929 87.2294 13.6911 83.5642 12.8594 78.9087C12.6777 77.8917 12.5304 77.0791 12.5039 76.4165C12.4767 75.7354 12.5722 75.1538 12.916 74.6187C13.2619 74.0803 13.7643 73.7505 14.4111 73.4888C15.0429 73.2332 15.8709 73.0208 16.9102 72.7534L30.2041 69.3335C32.3731 68.7754 33.9441 68.3699 35.0195 67.9185C36.0983 67.4656 36.5151 67.033 36.626 66.5151C36.7367 65.9971 36.5331 65.4311 35.7334 64.5767C34.9364 63.7252 33.6683 62.7126 31.917 61.3169L22.5176 53.8267C21.628 53.1177 20.9197 52.5551 20.4248 52.0356C19.9184 51.5041 19.587 50.9686 19.5088 50.3013C19.4311 49.6378 19.6202 49.05 19.9785 48.4292C20.3272 47.825 20.8671 47.1381 21.542 46.2769C24.7426 42.1929 27.6326 39.3779 31.6289 36.3931C32.533 35.7178 33.2562 35.1766 33.8926 34.8374Z" fill="#0E9384" stroke="#0E9384"/>
<path d="M93.6357 14.6191C94.2417 14.4255 94.8277 14.483 95.4785 14.6855C96.1117 14.8826 96.8594 15.2351 97.7949 15.6738C102.076 17.682 105.331 19.6951 109.073 22.7471C109.945 23.4581 110.645 24.0261 111.127 24.5605C111.625 25.1123 111.935 25.6733 111.978 26.3779C112.02 27.0835 111.778 27.6798 111.348 28.291C110.93 28.8837 110.3 29.5386 109.514 30.3584H109.513C106.409 33.5928 101.461 38.4201 96.0312 42.4424C93.3162 44.4536 90.4705 46.2715 87.666 47.5879C84.8655 48.9024 82.0768 49.7314 79.4844 49.7314C77.1278 49.7314 74.5577 48.9029 71.9609 47.5957C69.3588 46.2858 66.6937 44.4771 64.1357 42.4756C59.0196 38.4724 54.2886 33.662 51.292 30.418C50.5188 29.5809 49.9003 28.9119 49.4932 28.3105C49.0735 27.6908 48.8409 27.09 48.8965 26.3857C48.952 25.6828 49.2724 25.1276 49.7803 24.584C50.2726 24.0571 50.9829 23.4984 51.8691 22.7998C55.7866 19.7123 59.2539 17.6498 64.0273 15.6152C65.0339 15.1862 65.837 14.8425 66.5107 14.6621C67.2031 14.4767 67.8197 14.4456 68.4404 14.6924C69.0648 14.9406 69.4956 15.3997 69.8779 16.0264C70.2517 16.6389 70.6127 17.4688 71.0674 18.5117L75.8691 29.5293C76.7641 31.5824 77.414 33.0694 78.0303 34.0596C78.6484 35.0528 79.142 35.3956 79.6709 35.4229C80.2 35.45 80.7266 35.1594 81.4434 34.2344C82.1577 33.3125 82.9563 31.8999 84.0566 29.9492L90.8008 17.9932C91.3281 17.0584 91.7468 16.3136 92.1572 15.7695C92.5774 15.2125 93.0263 14.8139 93.6357 14.6191Z" fill="#0E9384" stroke="#0E9384"/>
<path d="M124.164 34.4155C124.756 34.366 125.302 34.5312 125.876 34.8374C126.512 35.1766 127.236 35.7177 128.14 36.3931C132.136 39.3779 135.026 42.1929 138.227 46.2769C138.902 47.1381 139.441 47.825 139.79 48.4292C140.148 49.0501 140.337 49.6379 140.26 50.3013C140.182 50.9686 139.849 51.5041 139.343 52.0356C138.848 52.555 138.14 53.1178 137.251 53.8267L127.852 61.3169C126.1 62.7126 124.832 63.7252 124.035 64.5767C123.236 65.431 123.032 65.9971 123.143 66.5151H123.144C123.254 67.0328 123.67 67.4656 124.749 67.9185C125.825 68.3699 127.396 68.7754 129.565 69.3335L142.858 72.7534C143.898 73.0208 144.725 73.2332 145.357 73.4888C146.004 73.7504 146.507 74.0803 146.853 74.6187C147.196 75.1539 147.292 75.7355 147.265 76.4165C147.238 77.079 147.091 77.8918 146.91 78.9087C146.13 83.2734 145.113 86.7675 143.357 90.8169L142.997 91.6343C142.536 92.6606 142.167 93.4833 141.775 94.0874C141.371 94.7109 140.91 95.1546 140.24 95.3784C139.57 95.6026 138.931 95.5237 138.229 95.2661C137.549 95.0163 136.753 94.5766 135.758 94.0288C131.83 91.8677 125.886 88.338 120.596 84.1343C117.95 82.0323 115.458 79.7535 113.461 77.3853C111.466 75.0204 109.944 72.5416 109.272 70.0376C108.663 67.7614 108.799 65.0648 109.39 62.2183C109.981 59.3657 111.038 56.3225 112.31 53.3335C114.852 47.3556 118.274 41.5412 120.632 37.8071C121.24 36.8438 121.726 36.0728 122.201 35.5239C122.691 34.9581 123.212 34.5782 123.907 34.4497L124.164 34.4155Z" fill="#0E9384" stroke="#0E9384"/>
<path d="M106.995 103.802C109.885 103.43 113.106 103.435 116.346 103.66C122.826 104.11 129.44 105.444 133.74 106.453C134.849 106.713 135.736 106.92 136.41 107.19C137.105 107.468 137.634 107.836 137.983 108.451L138.099 108.682C138.339 109.226 138.362 109.796 138.26 110.439C138.147 111.151 137.872 112.011 137.53 113.086C136.014 117.838 134.297 121.489 131.483 125.848C130.889 126.767 130.417 127.503 129.959 128.03C129.489 128.571 128.996 128.941 128.343 129.084C127.687 129.229 127.073 129.09 126.406 128.786C125.753 128.488 124.989 128.002 124.029 127.393L113.879 120.956C111.987 119.757 110.616 118.89 109.551 118.415C108.549 117.968 107.958 117.933 107.515 118.156L107.428 118.204C106.974 118.478 106.702 119.014 106.626 120.181C106.551 121.345 106.68 122.962 106.862 125.195L107.973 138.876C108.06 139.947 108.129 140.798 108.094 141.479C108.058 142.176 107.909 142.758 107.514 143.26C107.121 143.76 106.602 144.04 105.949 144.237C105.315 144.428 104.499 144.556 103.478 144.716C98.8062 145.451 94.9821 145.607 90.1721 145.174C89.0517 145.074 88.1541 144.995 87.4553 144.823C86.7341 144.645 86.1639 144.354 85.7336 143.794C85.3027 143.234 85.1688 142.604 85.1829 141.857C85.1966 141.132 85.3517 140.236 85.5442 139.116C86.3036 134.698 87.6989 127.927 89.9436 121.553C91.066 118.366 92.4048 115.266 93.9905 112.605C95.574 109.947 97.4201 107.699 99.5676 106.247C101.52 104.927 104.112 104.174 106.995 103.802Z" fill="#0E9384" stroke="#0E9384"/>
<path d="M42.9216 103.66C46.1618 103.435 49.3829 103.43 52.2722 103.802C55.1554 104.174 57.7479 104.927 59.7 106.247C61.8475 107.699 63.6935 109.947 65.2771 112.605C66.8629 115.267 68.2025 118.366 69.325 121.553C71.5697 127.927 72.9639 134.698 73.7234 139.116C73.9159 140.236 74.071 141.132 74.0847 141.857C74.0988 142.604 73.9649 143.234 73.5339 143.794C73.1037 144.354 72.5335 144.645 71.8123 144.823C71.1133 144.995 70.2152 145.073 69.0945 145.173L69.0955 145.174C64.2855 145.607 60.4614 145.451 55.7898 144.716C54.7689 144.556 53.9522 144.428 53.3171 144.237C52.6648 144.04 52.147 143.76 51.7537 143.26C51.358 142.757 51.2096 142.176 51.1736 141.479C51.1384 140.798 51.2089 139.946 51.2957 138.876L52.406 125.195C52.5872 122.962 52.7177 121.345 52.6423 120.181C52.5667 119.013 52.2932 118.478 51.8396 118.204V118.203C51.3862 117.93 50.7846 117.938 49.7166 118.415C48.6515 118.89 47.2805 119.757 45.3894 120.956L35.239 127.393C34.2784 128.002 33.5147 128.488 32.8621 128.786C32.2777 129.053 31.7343 129.193 31.1677 129.126L30.9236 129.085C30.2712 128.942 29.7779 128.571 29.3083 128.03C28.8512 127.503 28.3785 126.767 27.7849 125.848C24.9706 121.489 23.2535 117.838 21.738 113.086C21.3952 112.011 21.1203 111.151 21.0076 110.439C20.8913 109.704 20.9369 109.064 21.2849 108.451C21.6334 107.836 22.1624 107.468 22.8572 107.19C23.5313 106.92 24.4189 106.713 25.5281 106.453C29.8277 105.444 36.4412 104.11 42.9216 103.66Z" fill="#0E9384" stroke="#0E9384"/>
</g>
<defs>
<clipPath id="clip0_17_1097">
<rect width="160" height="160" fill="white"/>
</clipPath>
</defs>
</svg>
